Coordinates
version=1
nRows=8
nColumns=40
inDegrees=yes

Units are S.I. units (second, meters, Newtons, ...)
If the header above contains a line with 'inDegrees', this indicates whether rotational values are in degrees (yes) or radians (no).

endheader
time	pelvis_tilt	pelvis_list	pelvis_rotation	pelvis_tx	pelvis_ty	pelvis_tz	hip_flexion_r	hip_adduction_r	hip_rotation_r	knee_angle_r	knee_angle_r_beta	ankle_angle_r	subtalar_angle_r	mtp_angle_r	hip_flexion_l	hip_adduction_l	hip_rotation_l	knee_angle_l	knee_angle_l_beta	ankle_angle_l	subtalar_angle_l	mtp_angle_l	lumbar_extension	lumbar_bending	lumbar_rotation	arm_flex_r	arm_add_r	arm_rot_r	elbow_flex_r	pro_sup_r	wrist_flex_r	wrist_dev_r	arm_flex_l	arm_add_l	arm_rot_l	elbow_flex_l	pro_sup_l	wrist_flex_l	wrist_dev_l
      0.00500000	     -3.70551522	      0.24270001	      1.23618569	      0.20869168	      0.90437233	     -1.19552281	      4.75566736	    -18.69262415	    -29.83853829	      9.57848504	      0.16717610	     -2.25019926	     -2.11637597	      0.00000000	      5.70219048	    -17.50309780	    -34.29079740	      5.92258733	      0.10336865	     -1.75399928	     18.08222583	      0.00000000	    -17.59704692	     -0.10589714	     -3.49689287	     28.81340850	    -12.55901139	     28.81340850	     79.45840328	     43.66174372	      0.00000000	      0.00000000	     28.81340850	    -12.55901139	     28.81340850	     79.45840328	     43.66174372	      0.00000000	      0.00000000
      0.01000000	     -3.60912333	      0.22806301	      1.24090877	      0.20868711	      0.90449919	     -1.19549726	      4.62733978	    -18.66388264	    -29.87888952	      9.52743852	      0.16628517	     -2.23353850	     -2.04330775	      0.00000000	      5.64064186	    -17.55939746	    -34.39398063	      6.03648282	      0.10535650	     -1.66744563	     18.19974811	      0.00000000	    -17.69500275	     -0.08296204	     -3.45725170	     29.11077260	    -12.62337258	     29.11077260	     79.28585595	     43.73310879	      0.00000000	      0.00000000	     29.11077260	    -12.62337258	     29.11077260	     79.28585595	     43.73310879	      0.00000000	      0.00000000
      0.01500000	     -3.60039601	      0.23517420	      1.22581580	      0.20868714	      0.90453990	     -1.19546729	      4.60866073	    -18.64916644	    -29.80703850	      9.47719813	      0.16540831	     -2.31724131	     -2.16101289	      0.00000000	      5.56692991	    -17.50124537	    -34.26803291	      5.88344365	      0.10268546	     -1.77841132	     18.02368216	      0.00000000	    -17.70871276	     -0.11431561	     -3.49460359	     29.83821656	    -12.78834981	     29.83821656	     78.79468690	     43.97936898	      0.00000000	      0.00000000	     29.83821656	    -12.78834981	     29.83821656	     78.79468690	     43.97936898	      0.00000000	      0.00000000
      0.02000000	     -3.58922490	      0.22799622	      1.29615319	      0.20872073	      0.90452686	     -1.19558259	      4.58120169	    -18.68328755	    -29.99382027	      9.55059599	      0.16668935	     -2.18283898	     -1.93031966	      0.00000000	      5.62950505	    -17.53441041	    -34.27626959	      6.00304351	      0.10477287	     -1.68084796	     18.10273664	      0.00000000	    -17.71626034	     -0.07992733	     -3.55402639	     30.17619674	    -12.86549862	     30.17619674	     78.55963281	     44.11205305	      0.00000000	      0.00000000	     30.17619674	    -12.86549862	     30.17619674	     78.55963281	     44.11205305	      0.00000000	      0.00000000
      0.02500000	     -3.62159549	      0.22642146	      1.25923617	      0.20873875	      0.90448319	     -1.19548663	      4.63577178	    -18.67097287	    -29.93579236	      9.54672534	      0.16662179	     -2.20247962	     -1.99146871	      0.00000000	      5.65282962	    -17.55736993	    -34.36342562	      6.02533072	      0.10516186	     -1.67281933	     18.20413251	      0.00000000	    -17.67036712	     -0.08146558	     -3.46490372	     30.47122861	    -12.92539550	     30.47122861	     78.41615955	     44.16362603	      0.00000000	      0.00000000	     30.47122861	    -12.92539550	     30.47122861	     78.41615955	     44.16362603	      0.00000000	      0.00000000
      0.03000000	     -3.58415647	      0.22325127	      1.26754580	      0.20868423	      0.90456095	     -1.19554502	      4.56663847	    -18.64612868	    -29.85451563	      9.47674585	      0.16540042	     -2.25455245	     -2.10989851	      0.00000000	      5.62581281	    -17.55428183	    -34.37359102	      6.02918024	      0.10522905	     -1.69151551	     18.13067397	      0.00000000	    -17.72822333	     -0.06119049	     -3.51417336	     30.62121652	    -12.95857208	     30.62121652	     78.32089638	     44.21277886	      0.00000000	      0.00000000	     30.62121652	    -12.95857208	     30.62121652	     78.32089638	     44.21277886	      0.00000000	      0.00000000
      0.03500000	     -3.57328512	      0.20614504	      1.29410988	      0.20874591	      0.90456779	     -1.19554216	      4.53036448	    -18.62311910	    -29.92182293	      9.45443455	      0.16501101	     -2.26128846	     -2.05546932	      0.00000000	      5.58878367	    -17.54817931	    -34.23577974	      5.95864567	      0.10399799	     -1.70625460	     18.08407263	      0.00000000	    -17.72129741	     -0.04752640	     -3.49055452	     31.02771604	    -13.04288853	     31.02771604	     78.10875124	     44.29699326	      0.00000000	      0.00000000	     31.02771604	    -13.04288853	     31.02771604	     78.10875124	     44.29699326	      0.00000000	      0.00000000
      0.04000000	     -3.62880034	      0.23546553	      1.23513051	      0.20876974	      0.90448785	     -1.19545338	      4.62496119	    -18.64705945	    -29.78212380	      9.46665440	      0.16522429	     -2.30860598	     -2.20754802	      0.00000000	      5.61557063	    -17.52314649	    -34.34571966	      5.93690134	      0.10361848	     -1.74112761	     18.14786690	      0.00000000	    -17.65624895	     -0.11983692	     -3.53589783	     31.74206769	    -13.18514516	     31.74206769	     77.77779022	     44.40705597	      0.00000000	      0.00000000	     31.74206769	    -13.18514516	     31.74206769	     77.77779022	     44.40705597	      0.00000000	      0.00000000
